<?xml version="1.0" encoding="UTF-8"?>
<!-- Generated by Pixelmator Pro 3.0 -->
<svg width="682" height="682" viewBox="0 0 682 682" xmlns="http://www.w3.org/2000/svg" xmlns:xlink="http://www.w3.org/1999/xlink">
    <g id="g1">
        <path id="---" fill="#ffffff" fill-rule="evenodd" stroke="none" d="M 71 -0.25 C 31.78812 -0.25 0 31.538147 0 70.75 L 0 610 C 0 649.211853 31.78812 681 71 681 L 611 681 C 650.211853 681 682 649.211853 682 610 L 682 70.75 C 682 31.538147 650.211853 -0.25 611 -0.25 Z"/>
        <path id="path1" fill="#21ba45" stroke="none" d="M 52.133335 1.466675 C 25.6 8.533325 6.266667 28.93335 1.333333 54.799988 C 0.266667 60.533325 0 139.866638 0.266667 345.333344 L 0.666667 628 L 3.733333 635.866638 C 11.466666 656.400024 27.733334 672.266663 47.466667 678.799988 C 55.066666 681.200012 62.799999 681.333313 341.333344 681.333313 L 627.333313 681.333313 L 636 678.266663 C 656.266663 671.333313 672.799988 654.666687 679.466675 634.533325 C 681.866638 626.93335 682 619.200012 682 340.666656 L 682 54.666687 L 678.93335 46 C 672.133362 26 656.93335 10.666687 636.400024 2.93335 L 628.666687 0 L 344 -0.266663 C 98.400002 -0.533325 58.400002 -0.266663 52.133335 1.466675 Z M 495.466675 160 C 507.600006 167.866638 509.733337 196.533325 500.399994 225.066681 C 488.666656 260.933319 456.266663 308.399994 426.533325 333.466675 C 416.399994 342.133331 399.066681 354.533325 395.733337 355.600006 C 394.933319 355.866669 396.399994 361.733337 399.066681 368.666656 C 401.600006 375.600006 406.799988 393.066681 410.533325 407.333344 C 422.799988 453.600006 428.266663 464.133331 440.266663 463.733337 C 448.533325 463.333313 457.733337 456.399994 484.666656 430 C 497.866669 416.933319 510 406 511.733337 405.466675 C 518.266663 403.333344 521.866638 411.866669 521.200012 427.600006 C 519.599976 458.93335 481.200012 499.466675 438.933319 514.533325 C 428.533325 518.133301 425.733337 518.666687 412 518.666687 C 397.866669 518.666687 396.133331 518.400024 389.066681 514.93335 C 380.533325 510.666687 372.399994 502.266663 368.133331 493.200012 C 363.466675 483.333313 358.933319 461.866669 354.666656 428.666687 C 350.533325 396.799988 345.866669 370 344.266663 368.533325 C 343.733337 368.133331 340.799988 367.066681 337.733337 366.266663 C 334.799988 365.333344 329.333344 362.666656 325.866669 360.266663 C 308.533325 348.666656 309.600006 328.666656 327.866669 322.799988 C 341.200012 318.399994 346.799988 318.533325 366 324 C 368.133331 324.666656 370.399994 322.533325 377.466675 313.733337 C 398.799988 287.066681 410.799988 264 440.533325 191.733337 C 447.066681 176.266663 453.333344 162.533325 454.666656 161.333313 C 460 156.533325 488.799988 155.599976 495.466675 160 Z M 338.266663 174.799988 C 345.200012 178.133331 347.333344 182.399994 347.066681 191.866669 C 346.799988 201.200012 342.533325 216.133331 338.799988 220.933319 C 337.333344 222.799988 335.466675 228.399994 334.666656 233.466675 C 332.133331 248.133331 327.333344 266.399994 314 312.133331 C 288 400.666656 279.333344 441.600006 276.666656 488.399994 C 275.866669 502 275.200012 505.466675 272.799988 508.93335 C 266.133331 518.799988 254.399994 523.200012 231.866669 524.266663 C 214.133331 525.06665 211.46666 524.266663 208.266663 516.93335 C 204.666672 508.399994 204.399994 468.266663 207.866669 443.866669 C 215.600006 390.399994 240 301.466675 262.266663 246.133331 C 266.133331 236.266663 269.066681 227.866669 268.666656 227.466675 C 267.333344 226.266663 236.933334 229.866669 226.133331 232.666656 C 211.199997 236.399994 198.266663 243.066681 186.133331 253.333344 C 174.266663 263.200012 170.800003 263.866669 166.133331 257.600006 C 162 252 162.133331 231.866669 166.399994 223.200012 C 177.733337 200 219.46666 182.799988 280.133331 176 C 314 172.266663 332 171.866669 338.266663 174.799988 Z"/>
    </g>
</svg>
